<?xml version="1.0"?>
<svg xmlns="http://www.w3.org/2000/svg" xmlns:xlink="http://www.w3.org/1999/xlink" xmlns:svgjs="http://svgjs.com/svgjs" version="1.1" width="512" height="512" x="0" y="0" viewBox="0 0 74 74" style="enable-background:new 0 0 512 512" xml:space="preserve" class=""><g><path xmlns="http://www.w3.org/2000/svg" d="m38.052 41.067v-9.5a8.98 8.98 0 0 1 -7.21-8.75v-10.654a9.056 9.056 0 0 1 8.974-9.116h23.193a9.064 9.064 0 0 1 8.991 9.116v10.658a9 9 0 0 1 -8.991 8.992h-14.8zm1.763-36.02a7.054 7.054 0 0 0 -6.974 7.116v10.658a7.05 7.05 0 0 0 6.34 6.92l.87.114v6.685l7.386-6.728h15.572a7 7 0 0 0 6.991-6.991v-10.658a7.063 7.063 0 0 0 -6.991-7.116z" fill="#38c134" data-original="#000000" style="" class=""/><path xmlns="http://www.w3.org/2000/svg" d="m43.326 28.387a1 1 0 0 1 -.98-1.2l3.925-19.405a1 1 0 0 1 .979-.8h.031c12.994 0 16.926 13.125 16.964 13.258a1 1 0 0 1 -.636 1.222l-19.958 6.871a1 1 0 0 1 -.325.054zm4.74-19.387-3.414 16.873 17.361-5.978c-1.034-2.695-4.795-10.474-13.947-10.895z" fill="#38c134" data-original="#000000" style="" class=""/><path xmlns="http://www.w3.org/2000/svg" d="m59.111 22.04c-2.544-5.728-6.456-8.765-12.686-9.85l.344-1.971c6.862 1.195 11.364 4.693 14.17 11.009z" fill="#38c134" data-original="#000000" style="" class=""/><path xmlns="http://www.w3.org/2000/svg" d="m52.519 19.092h2v1.742h-2z" transform="matrix(.707 -.707 .707 .707 1.559 43.691)" fill="#38c134" data-original="#000000" style="" class=""/><path xmlns="http://www.w3.org/2000/svg" d="m47.706 20.734h1.742v2h-1.742z" transform="matrix(.707 -.707 .707 .707 -1.14 40.715)" fill="#38c134" data-original="#000000" style="" class=""/><path xmlns="http://www.w3.org/2000/svg" d="m50.033 15.293h2v2.331h-2z" transform="matrix(.443 -.896 .896 .443 13.662 54.912)" fill="#38c134" data-original="#000000" style="" class=""/><path xmlns="http://www.w3.org/2000/svg" d="m38.941 71.987c-6.975 0-17.475-7.995-26.167-20.55-4.952-7.154-8.506-14.658-10.008-21.131-1.573-6.78-.7-11.717 2.455-13.9l9.934-6.877a3.016 3.016 0 0 1 4.1 1.074l8.191 11.833a3.524 3.524 0 0 1 .645 2.214 2.6 2.6 0 0 1 -1.082 2l-5.413 3.748c-1.861 1.289-1.2 6.541 3.123 12.779a23.643 23.643 0 0 0 6.549 6.671c1.822 1.112 3.395 1.386 4.312.75l5.414-3.749a3.015 3.015 0 0 1 4.1 1.075l8.183 11.826a3.016 3.016 0 0 1 -.437 4.211l-9.934 6.877a6.823 6.823 0 0 1 -3.965 1.149zm-22.369-60.894a.494.494 0 0 0 -.28.077l-9.933 6.878c-2.4 1.662-3 5.965-1.646 11.806 1.447 6.232 4.893 13.493 9.706 20.446 9.6 13.861 22.12 22.519 27.35 18.9l9.931-6.884c.293-.2.326-.857-.069-1.429l-8.191-11.831c-.4-.572-1.019-.771-1.313-.568l-5.413 3.749c-1.621 1.122-3.926.879-6.493-.687a25.274 25.274 0 0 1 -7.151-7.24c-4.788-6.915-5.864-13.31-2.618-15.563l5.414-3.747a.638.638 0 0 0 .224-.482 1.541 1.541 0 0 0 -.293-.946l-8.192-11.834a1.378 1.378 0 0 0 -1.033-.645z" fill="#38c134" data-original="#000000" style="" class=""/><path xmlns="http://www.w3.org/2000/svg" d="m16.062 11.456h2v18.82h-2z" transform="matrix(.822 -.569 .569 .822 -8.844 13.423)" fill="#38c134" data-original="#000000" style="" class=""/><path xmlns="http://www.w3.org/2000/svg" d="m41.898 48.774h2v18.819h-2z" transform="matrix(.822 -.569 .569 .822 -25.491 34.763)" fill="#38c134" data-original="#000000" style="" class=""/></g></svg>
